<svg xmlns="http://www.w3.org/2000/svg" xmlns:xlink="http://www.w3.org/1999/xlink" version="1.1" x="0px" y="0px" viewBox="0 0 133 166.25" style="enable-background:new 0 0 133 133;" xml:space="preserve"><g><g><path d="M3.1660156,130H2.5c-0.2763672,0-0.5,0.2236328-0.5,0.5s0.2236328,0.5,0.5,0.5h0.6660156    c0.2763672,0,0.5-0.2236328,0.5-0.5S3.4423828,130,3.1660156,130z"/><path d="M120.5,130h-1c-0.2763672,0-0.5,0.2236328-0.5,0.5s0.2236328,0.5,0.5,0.5h1c0.2763672,0,0.5-0.2236328,0.5-0.5    S120.7763672,130,120.5,130z"/><path d="M49.8789063,124.7890625h19.7753906c0.2763672,0,0.5-0.2236328,0.5-0.5s-0.2236328-0.5-0.5-0.5H49.8789063    c-0.2763672,0-0.5,0.2236328-0.5,0.5S49.6025391,124.7890625,49.8789063,124.7890625z"/><path d="M59.8564453,104.8818359c-1.4267578,0-2.5869141,1.1601563-2.5869141,2.5869141s1.1601563,2.5869141,2.5869141,2.5869141    s2.5869141-1.1601563,2.5869141-2.5869141S61.2832031,104.8818359,59.8564453,104.8818359z M59.8564453,109.0556641    c-0.875,0-1.5869141-0.7119141-1.5869141-1.5869141s0.7119141-1.5869141,1.5869141-1.5869141    s1.5869141,0.7119141,1.5869141,1.5869141S60.7314453,109.0556641,59.8564453,109.0556641z"/><path d="M13.2285156,35.0976563c1.2197266,0,2.2128906-0.9931641,2.2128906-2.2128906s-0.9931641-2.2128906-2.2128906-2.2128906    s-2.2128906,0.9931641-2.2128906,2.2128906S12.0087891,35.0976563,13.2285156,35.0976563z M13.2285156,31.671875    c0.6689453,0,1.2128906,0.5439453,1.2128906,1.2128906s-0.5439453,1.2128906-1.2128906,1.2128906    s-1.2128906-0.5439453-1.2128906-1.2128906S12.5595703,31.671875,13.2285156,31.671875z"/><path d="M20.3642578,35.0976563c1.2197266,0,2.2128906-0.9931641,2.2128906-2.2128906s-0.9931641-2.2128906-2.2128906-2.2128906    s-2.2128906,0.9931641-2.2128906,2.2128906S19.1445313,35.0976563,20.3642578,35.0976563z M20.3642578,31.671875    c0.6689453,0,1.2128906,0.5439453,1.2128906,1.2128906s-0.5439453,1.2128906-1.2128906,1.2128906    s-1.2128906-0.5439453-1.2128906-1.2128906S19.6953125,31.671875,20.3642578,31.671875z"/><path d="M27.5,35.0976563c1.2197266,0,2.2128906-0.9931641,2.2128906-2.2128906S28.7197266,30.671875,27.5,30.671875    s-2.2128906,0.9931641-2.2128906,2.2128906S26.2802734,35.0976563,27.5,35.0976563z M27.5,31.671875    c0.6689453,0,1.2128906,0.5439453,1.2128906,1.2128906S28.1689453,34.0976563,27.5,34.0976563    s-1.2128906-0.5439453-1.2128906-1.2128906S26.8310547,31.671875,27.5,31.671875z"/><path d="M123.8339844,31.9121094c0.0107422,0,0.0214844,0,0.0322266,0h0.0009766    c1.7011719-0.0195313,3.0732422-1.4199219,3.0585938-3.1210938c-0.0175781-1.7001953-1.4296875-3.0361328-3.1191406-3.0556641    c-0.8232422,0.0078125-1.5947266,0.3369141-2.1728516,0.9248047c-0.5791016,0.5898438-0.8935547,1.3671875-0.8847656,2.1894531    c0.0068359,0.8251953,0.3349609,1.5986328,0.9257813,2.1777344    C122.2568359,31.5986328,123.0224609,31.9121094,123.8339844,31.9121094z M122.3466797,27.3613281    c0.3916016-0.3984375,0.9130859-0.6210938,1.4697266-0.6259766c0.0058594,0,0.0117188,0,0.0185547,0    c1.1425781,0,2.0791016,0.9228516,2.0908203,2.0654297c0.0097656,1.1503906-0.9179688,2.0976563-2.0693359,2.1113281    c-0.5126953,0.0136719-1.0820313-0.2060547-1.4814453-0.5986328c-0.3994141-0.3916016-0.6210938-0.9140625-0.6259766-1.4726563    C121.7431641,28.2851563,121.9560547,27.7597656,122.3466797,27.3613281z"/><path d="M128.1289063,22.7197266L95.7008667,2.6055908c-0.005188-0.00354-0.0107422-0.0064087-0.0159302-0.0098877    l-0.2581787-0.1601563C95.3914185,2.4138794,95.352356,2.40625,95.3143311,2.3942261    C94.8358154,2.1505127,94.3023682,2,93.7294922,2c-1.9404297,0-3.5195313,1.5791016-3.5195313,3.5195313v17.9296875H7.7207031    c-3.1523438,0-5.7167969,2.5644531-5.7167969,5.7158203v78.4580078c0,3.1523438,2.5644531,5.7167969,5.7167969,5.7167969    h40.5440063c-0.1265869,5.3526001-2.2527466,10.369873-6.0527954,14.1708984L39.7226563,130H8.1660156    c-0.2763672,0-0.5,0.2236328-0.5,0.5s0.2236328,0.5,0.5,0.5h31.7636719h39.8232422H114.5c0.2763672,0,0.5-0.2236328,0.5-0.5    s-0.2236328-0.5-0.5-0.5H79.9599609l-2.4892578-2.4892578c-3.8001099-3.8001099-5.9262695-8.8173828-6.0527954-14.1708984    h40.5440063c3.1523438,0,5.7167969-2.5644531,5.7167969-5.7167969v-5.5296021    c0.4174805,0.3129883,0.9302368,0.505188,1.4912109,0.505188h0.0029297H128.5c1.3789063,0,2.5-1.1210938,2.5-2.5    c0-31.6571579,0-39.1577263,0-72.2148438C131,25.7675781,129.9267578,23.8369141,128.1289063,22.7197266z M119.5810547,25.9570313    l-0.5224609-0.9277344c-0.0449219-0.0800781-0.0322266-0.1777344,0.0322266-0.2441406l0.6992188-0.7158203    c0.0644531-0.0664063,0.1640625-0.0820313,0.2470703-0.0380859l0.9375,0.5039063    c0.1494141,0.0820313,0.3339844,0.0791016,0.4824219-0.0048828c0.3144531-0.1787109,0.6396484-0.3183594,0.9951172-0.4277344    c0.1601563-0.0488281,0.2851563-0.1757813,0.3330078-0.3378906l0.2978516-1.0292969    c0.0253906-0.0888672,0.1044922-0.1484375,0.1972656-0.1494141l1-0.0087891c0,0,0.0009766,0,0.0019531,0    c0.0908203,0,0.1699219,0.0585938,0.1962891,0.1474609l0.3095703,1.0185547    c0.0439453,0.1445313,0.1513672,0.2617188,0.2919922,0.3183594l1.1064453,0.4453125    c0.1396484,0.0566406,0.2988281,0.0458984,0.4306641-0.0273438l0.9316406-0.5214844    c0.0810547-0.0439453,0.1796875-0.0322266,0.2460938,0.0332031l0.7119141,0.7011719    c0.0654297,0.0644531,0.0800781,0.1650391,0.0380859,0.2441406l-0.5029297,0.9394531    c-0.0810547,0.1513672-0.0791016,0.3339844,0.0058594,0.4833984c0.1279297,0.2246094,0.2373047,0.4619141,0.3232422,0.6962891    c0.0341797,0.0986328,0.0683594,0.1962891,0.0996094,0.3007813c0.0488281,0.1630859,0.1777344,0.2900391,0.3417969,0.3359375    l1.0283203,0.2929688c0.0888672,0.0253906,0.1494141,0.1044922,0.1503906,0.1962891L130,29.1835938    c0.0009766,0.0917969-0.0576172,0.171875-0.1464844,0.1982422l-1.0625,0.328125    c-0.1464844,0.0585938-0.2568359,0.1826172-0.2978516,0.3359375c-0.0224609,0.0830078-0.0488281,0.1679688-0.0771484,0.2490234    c-0.0888672,0.2558594-0.1972656,0.5068359-0.3242188,0.7460938c-0.0791016,0.1494141-0.0771484,0.3300781,0.0058594,0.4775391    l0.5214844,0.9306641c0.0439453,0.0791016,0.03125,0.1787109-0.0322266,0.2431641l-0.7021484,0.71875    c-0.0625,0.0654297-0.1630859,0.0839844-0.2451172,0.0380859l-0.9443359-0.5048828    c-0.1503906-0.0800781-0.3320313-0.078125-0.4824219,0.0068359c-0.3154297,0.1787109-0.6484375,0.3203125-0.9882813,0.4199219    c-0.1650391,0.0478516-0.2929688,0.1777344-0.3398438,0.3427734l-0.2929688,1.0283203    c-0.0253906,0.0888672-0.1044922,0.1494141-0.1962891,0.1503906c-0.1297607,0.0011368,0.0082474-0.0000801-1.0039063,0.0087891    c-0.0898438,0-0.1699219-0.0595703-0.1962891-0.1455078l-0.3115234-1.0195313    c-0.0498047-0.1621094-0.1787109-0.2880859-0.3417969-0.3349609c-0.3535156-0.0996094-0.6904297-0.2363281-1-0.4052734    c-0.0751953-0.0400391-0.1572266-0.0605469-0.2392578-0.0605469c-0.0839844,0-0.1669922,0.0214844-0.2431641,0.0634766    L120.125,33.5185547c-0.0791016,0.0458984-0.1787109,0.0322266-0.2441406-0.0332031l-0.7119141-0.7001953    c-0.0654297-0.0634766-0.0800781-0.1650391-0.0380859-0.2441406l0.5029297-0.9384766    c0.0810547-0.1513672,0.0791016-0.3339844-0.0058594-0.4833984c-0.1767578-0.3115234-0.3212891-0.6474609-0.4287109-0.9970703    c-0.0488281-0.1621094-0.1767578-0.2880859-0.3398438-0.3339844l-1.0263672-0.2939453    c-0.0869141-0.0253906-0.1484375-0.1054688-0.1494141-0.1962891l-0.0107422-1.0009766    c-0.0009766-0.0908203,0.0585938-0.171875,0.1455078-0.1982422l1.0224609-0.3134766    c0.1640625-0.0507813,0.2910156-0.1816406,0.3359375-0.3466797c0.0898438-0.3291016,0.2236328-0.6552734,0.4082031-0.9990234    C119.6669922,26.2890625,119.6650391,26.1064453,119.5810547,25.9570313z M129.9077759,26.9653931l-0.565979-0.1616821    c-0.0087891-0.0273438-0.0185547-0.0546875-0.0283203-0.0830078c-0.0761719-0.2070313-0.1640625-0.4111328-0.2636719-0.6083984    l0.3421021-0.6398315C129.6414795,25.9354858,129.8121338,26.4390869,129.9077759,26.9653931z M125.2885132,22.1346436    l1.6460571,1.0209961l-0.5966797,0.3345947l-0.6621094-0.2666016l-0.2402344-0.7890625    C125.4026489,22.3253784,125.3486328,22.227478,125.2885132,22.1346436z M117.6787109,86.2636719H130v4.4697266h-12.3212891    V86.2636719z M117.6787109,76.8404541c0.03125-0.7998047,0.6868286-1.4420166,1.4941406-1.4420166H128.5    c0.8271484,0,1.5,0.6728516,1.5,1.5v2.9697266h-12.3212891V76.8404541z M128.5,74.3984375c-0.1323242,0-9.4516068,0-9.3300781,0    c-0.5609741,0-1.0737305,0.1921997-1.4912109,0.505188V30.4898071l0.6513672,0.1869507    c0.0849609,0.2363281,0.1835938,0.4667969,0.2958984,0.6894531l-0.3769531,0.703125    c-0.25,0.46875-0.1601563,1.0566406,0.21875,1.4287109l0.7109375,0.6992188    c0.3789063,0.3740234,0.9667969,0.453125,1.4326172,0.1943359l0.7011719-0.3896484    c0.2226563,0.1074219,0.453125,0.2011719,0.6923828,0.2802734l0.234375,0.7666016    c0.1542969,0.5039063,0.6269531,0.8525391,1.1523438,0.8525391c0.0039063,0,0.0078125,0,0.0107346,0l1.0019608-0.0087891    c0.5302734-0.0048828,1.0029297-0.3652344,1.1484375-0.8769531l0.2197266-0.7705078    c0.234375-0.0820313,0.4638672-0.1796875,0.6875-0.2919922l0.7089844,0.3789063    c0.4697266,0.25,1.0576172,0.1591797,1.4306641-0.2216797l0.7021484-0.71875    c0.3720703-0.3798828,0.4492188-0.9697266,0.1894531-1.4316406l-0.3916016-0.6992188    c0.0986328-0.2070313,0.1865234-0.4208984,0.2617188-0.6376953c0.0048828-0.0166016,0.0107422-0.0332031,0.0166016-0.0498047    L130,30.3835449v44.5273438C129.5809326,74.593811,129.0650635,74.3984375,128.5,74.3984375z M93.7294922,3    c0.5097046,0,0.9830322,0.15448,1.3800659,0.4155273l0.0387573,0.0239868C95.8125,3.8936768,96.25,4.6559448,96.25,5.5195313    c0,1.3896484-1.1308594,2.5205078-2.5205078,2.5205078s-2.5195313-1.1308594-2.5195313-2.5205078S92.3398438,3,93.7294922,3z     M91.2099609,7.9689331c0.6399536,0.6585693,1.531189,1.071106,2.5195313,1.071106    c1.9414063,0,3.5205078-1.5791016,3.5205078-3.5205078c0-0.2937622-0.046814-0.5747681-0.1149902-0.8477173l27.2936401,16.9294434    c-0.0493774-0.0062866-0.0958252-0.0241089-0.1464233-0.0241089c-0.0039063,0-0.0078125,0-0.0107422,0l-1.0009766,0.0087891    c-0.5302734,0.0048828-1.0029297,0.3642578-1.1484375,0.8740234l-0.2236328,0.7734375    c-0.2382813,0.0839844-0.4648438,0.1816406-0.6865234,0.2939453l-0.7011719-0.3769531    c-0.4716797-0.2529297-1.0615234-0.1630859-1.4355469,0.2197266l-0.6992188,0.7158203    c-0.3730469,0.3808594-0.4501953,0.9707031-0.1884766,1.4345703l0.390625,0.6923828    c-0.1142578,0.2333984-0.2080078,0.4628906-0.2851563,0.6933594l-0.7675781,0.2353516    c-0.0689697,0.0211792-0.1264648,0.0617065-0.1890869,0.0940552c-0.7941284-2.2035522-2.9000854-3.786438-5.3743896-3.786438    H91.2099609V7.9689331z M7.7207031,24.4492188h82.4892578v4.2167969H7.7207031c-0.2763672,0-0.5,0.2236328-0.5,0.5    c0,7.7418518,0,55.312294,0,67.625c0,0.2763672,0.2236328,0.5,0.5,0.5h104.2402344c0.2763672,0,0.5-0.2236328,0.5-0.5    c0-11.7549896,0-59.7822952,0-67.625c0-0.2763672-0.2236328-0.5-0.5-0.5H91.2099609v-4.2167969h20.7519531    c2.6005859,0,4.7167969,2.1152344,4.7167969,4.7158203c0.0000076,0.1285419,0.0002747,72.6051102,0,72.4335938H3.0039063    V29.1650391C3.0039063,26.5644531,5.1201172,24.4492188,7.7207031,24.4492188z M8.2207031,37.1123047h81.9892578v3.5078125    H87.1875c-0.2763672,0-0.5,0.2236328-0.5,0.5s0.2236328,0.5,0.5,0.5h5.9736328c0.2763672,0,0.5-0.2236328,0.5-0.5    s-0.2236328-0.5-0.5-0.5h-1.9511719v-3.5078125h20.2509766v59.1787109H8.2207031V37.1123047z M111.4609375,36.1123047H91.2099609    v-2.7236328h14.125c0.2763672,0,0.5-0.2236328,0.5-0.5s-0.2236328-0.5-0.5-0.5h-14.125v-2.7226563h20.2509766V36.1123047z     M90.2099609,32.3886719H70.1660156c-0.2763672,0-0.5,0.2236328-0.5,0.5s0.2236328,0.5,0.5,0.5h20.0439453v2.7236328H8.2207031    v-6.4462891h81.9892578V32.3886719z M76.7636719,128.2177734L78.5458984,130H41.1367188l1.7822266-1.7822266    c3.9902344-3.9902344,6.2382813-9.2568359,6.3642578-14.8779297h21.1162109    C70.5253906,118.9619141,72.7734375,124.2285156,76.7636719,128.2177734z M111.9619141,112.3398438H70.8935547H48.7890625    H7.7207031c-2.6005859,0-4.7167969-2.1162109-4.7167969-4.7167969v-5.0244141h113.6748047v5.0244141    C116.6787109,110.2236328,114.5625,112.3398438,111.9619141,112.3398438z M130,100.0986328c0,0.8271484-0.6728516,1.5-1.5,1.5    h-9.3271484c-0.807312,0-1.4628906-0.6422119-1.4941406-1.4420166v-3.0286865H130V100.0986328z M130,96.1279297h-12.3212891    v-4.3945313H130V96.1279297z M130,85.2636719h-12.3212891v-4.3955078H130V85.2636719z"/><path d="M36.0605469,71.0537109H19.4296875c-1.453125,0-2.6347656,1.1816406-2.6347656,2.6347656v16.6308594    c0,1.453125,1.1816406,2.6347656,2.6347656,2.6347656h16.6308594c1.453125,0,2.6347656-1.1816406,2.6347656-2.6347656V73.6884766    C38.6953125,72.2353516,37.5136719,71.0537109,36.0605469,71.0537109z M37.6953125,90.3193359    c0,0.9013672-0.7333984,1.6347656-1.6347656,1.6347656H19.4296875c-0.9013672,0-1.6347656-0.7333984-1.6347656-1.6347656    V73.6884766c0-0.9013672,0.7333984-1.6347656,1.6347656-1.6347656h16.6308594    c0.9013672,0,1.6347656,0.7333984,1.6347656,1.6347656V90.3193359z"/><path d="M66.6425781,71.0537109H50.0117188c-1.453125,0-2.6347656,1.1816406-2.6347656,2.6347656v16.6308594    c0,1.453125,1.1816406,2.6347656,2.6347656,2.6347656h16.6308594c1.453125,0,2.634758-1.1816406,2.634758-2.6347656V73.6884766    C69.2773361,72.2353516,68.0957031,71.0537109,66.6425781,71.0537109z M68.2773361,90.3193359    c0,0.9013672-0.7333908,1.6347656-1.634758,1.6347656H50.0117188c-0.9013672,0-1.6347656-0.7333984-1.6347656-1.6347656    V73.6884766c0-0.9013672,0.7333984-1.6347656,1.6347656-1.6347656h16.6308594c0.9013672,0,1.634758,0.7333984,1.634758,1.6347656    V90.3193359z"/><path d="M97.0751953,71.0537109H80.4443359c-1.453125,0-2.6347656,1.1816406-2.6347656,2.6347656v16.6308594    c0,1.453125,1.1816406,2.6347656,2.6347656,2.6347656h16.6308594c1.453125,0,2.6347656-1.1816406,2.6347656-2.6347656V73.6884766    C99.7099609,72.2353516,98.5283203,71.0537109,97.0751953,71.0537109z M98.7099609,90.3193359    c0,0.9013672-0.7333984,1.6347656-1.6347656,1.6347656H80.4443359c-0.9013672,0-1.6347656-0.7333984-1.6347656-1.6347656    V73.6884766c0-0.9013672,0.7333984-1.6347656,1.6347656-1.6347656h16.6308594    c0.9013672,0,1.6347656,0.7333984,1.6347656,1.6347656V90.3193359z"/><path d="M101.4912109,62.3974609c-0.3535156,0.4716797-0.8935547,0.7421875-1.4824219,0.7421875H99.6875V46.6455078    c0-1.5732422-1.2792969-2.8525391-2.8515625-2.8525391H20.9716797v-0.3203125    c0-0.6298828,0.3144531-1.2099609,0.8417969-1.5527344c0.2314453-0.1503906,0.296875-0.4599609,0.1464844-0.6914063    c-0.1513672-0.2324219-0.4609375-0.2958984-0.6914063-0.1464844c-0.8125,0.5273438-1.296875,1.4208984-1.296875,2.390625    v0.3203125h-0.3212891c-1.5722656,0-2.8515625,1.2792969-2.8515625,2.8525391v17.8154297    c0,1.5722656,1.2792969,2.8515625,2.8515625,2.8515625h77.1855469c1.5722656,0,2.8515625-1.2792969,2.8515625-2.8515625    v-0.3212891h0.3212891c0.8935471,0,1.7470703-0.4267578,2.2832031-1.1425781    c0.1650391-0.2207031,0.1201172-0.5341797-0.1005859-0.7001953    C101.9716797,62.1318359,101.6582031,62.1767578,101.4912109,62.3974609z M98.6875,64.4609375    c0,1.0205078-0.8310547,1.8515625-1.8515625,1.8515625H19.6503906c-1.0205078,0-1.8515625-0.8310547-1.8515625-1.8515625    V46.6455078c0-1.0214844,0.8310547-1.8525391,1.8515625-1.8525391h77.1855469    c1.0205078,0,1.8515625,0.8310547,1.8515625,1.8525391V64.4609375z"/><path d="M102.3603516,50.3505859c-0.2763672,0-0.5,0.2236328-0.5,0.5v5.9736328c0,0.2763672,0.2236328,0.5,0.5,0.5    s0.5-0.2236328,0.5-0.5v-5.9736328C102.8603516,50.5742188,102.6367188,50.3505859,102.3603516,50.3505859z"/><path d="M100.0087891,40.6201172h-0.8740234c-0.2763672,0-0.5,0.2236328-0.5,0.5s0.2236328,0.5,0.5,0.5h0.8740234    c1.0205078,0,1.8515625,0.8310547,1.8515625,1.8525391v1.4042969c0,0.2763672,0.2236328,0.5,0.5,0.5s0.5-0.2236328,0.5-0.5    v-1.4042969C102.8603516,41.8994141,101.5810547,40.6201172,100.0087891,40.6201172z"/><path d="M27.4511719,41.6201172h5.9736328c0.2763672,0,0.5-0.2236328,0.5-0.5s-0.2236328-0.5-0.5-0.5h-5.9736328    c-0.2763672,0-0.5,0.2236328-0.5,0.5S27.1748047,41.6201172,27.4511719,41.6201172z"/><path d="M51.3457031,41.6201172h5.9736328c0.2763672,0,0.5-0.2236328,0.5-0.5s-0.2236328-0.5-0.5-0.5h-5.9736328    c-0.2763672,0-0.5,0.2236328-0.5,0.5S51.0693359,41.6201172,51.3457031,41.6201172z"/><path d="M39.3984375,41.6201172h5.9736328c0.2763672,0,0.5-0.2236328,0.5-0.5s-0.2236328-0.5-0.5-0.5h-5.9736328    c-0.2763672,0-0.5,0.2236328-0.5,0.5S39.1220703,41.6201172,39.3984375,41.6201172z"/><path d="M75.2402344,41.6201172h5.9736328c0.2763672,0,0.5-0.2236328,0.5-0.5s-0.2236328-0.5-0.5-0.5h-5.9736328    c-0.2763672,0-0.5,0.2236328-0.5,0.5S74.9638672,41.6201172,75.2402344,41.6201172z"/><path d="M63.2929688,41.6201172h5.9736328c0.2763672,0,0.5-0.2236328,0.5-0.5s-0.2236328-0.5-0.5-0.5h-5.9736328    c-0.2763672,0-0.5,0.2236328-0.5,0.5S63.0166016,41.6201172,63.2929688,41.6201172z"/><path d="M82.2578125,53.0703125c-0.2763672,0-0.5,0.2236328-0.5,0.5s0.2236328,0.5,0.5,0.5h5.1621094    c0.2763672,0,0.5-0.2236328,0.5-0.5s-0.2236328-0.5-0.5-0.5H82.2578125z"/><path d="M27.9716797,49.8398438h22.6894531c0.2763672,0,0.5-0.2236328,0.5-0.5s-0.2236328-0.5-0.5-0.5H27.9716797    c-0.2763672,0-0.5,0.2236328-0.5,0.5S27.6953125,49.8398438,27.9716797,49.8398438z"/><path d="M27.9716797,54.0703125h50.6650391c0.2763672,0,0.5-0.2236328,0.5-0.5s-0.2236328-0.5-0.5-0.5H27.9716797    c-0.2763672,0-0.5,0.2236328-0.5,0.5S27.6953125,54.0703125,27.9716797,54.0703125z"/><path d="M95.5078125,57.3017578H85.4941406c-0.2763672,0-0.5,0.2236328-0.5,0.5s0.2236328,0.5,0.5,0.5h10.0136719    c0.2763672,0,0.5-0.2236328,0.5-0.5S95.7841797,57.3017578,95.5078125,57.3017578z"/><path d="M95.5078125,61.2666016H54.1669922c-0.2763672,0-0.5,0.2236328-0.5,0.5s0.2236328,0.5,0.5,0.5h41.3408203    c0.2763672,0,0.5-0.2236328,0.5-0.5S95.7841797,61.2666016,95.5078125,61.2666016z"/><path d="M70.1904297,57.3017578c-0.2763672,0-0.5,0.2236328-0.5,0.5s0.2236328,0.5,0.5,0.5h10.0644531    c0.2763672,0,0.5-0.2236328,0.5-0.5s-0.2236328-0.5-0.5-0.5H70.1904297z"/><path d="M27.9716797,58.3017578h36.8398438c0.2763672,0,0.5-0.2236328,0.5-0.5s-0.2236328-0.5-0.5-0.5H27.9716797    c-0.2763672,0-0.5,0.2236328-0.5,0.5S27.6953125,58.3017578,27.9716797,58.3017578z"/><path d="M50.0058594,61.2666016H27.9716797c-0.2763672,0-0.5,0.2236328-0.5,0.5s0.2236328,0.5,0.5,0.5h22.0341797    c0.2763672,0,0.5-0.2236328,0.5-0.5S50.2822266,61.2666016,50.0058594,61.2666016z"/><path d="M55.3994141,49.8398438h37.9345703c0.2763672,0,0.5-0.2236328,0.5-0.5s-0.2236328-0.5-0.5-0.5H55.3994141    c-0.2763672,0-0.5,0.2236328-0.5,0.5S55.1230469,49.8398438,55.3994141,49.8398438z"/></g></g><text x="0" y="148" fill="#000000" font-size="5px" font-weight="bold" font-family="'Helvetica Neue', Helvetica, Arial-Unicode, Arial, Sans-serif">Created by Brickclay</text><text x="0" y="153" fill="#000000" font-size="5px" font-weight="bold" font-family="'Helvetica Neue', Helvetica, Arial-Unicode, Arial, Sans-serif">from the Noun Project</text></svg>