<svg xmlns="http://www.w3.org/2000/svg" version="1.1" viewBox="-5.0 -10.0 110.0 135.0">
 <path d="m84.723 73.793c-0.14062 8.0547 1.2656 6.625-6.7656 6.8047 0.51172 1.9219 2.0117 3.4258 3.9375 3.9375 1.9219 0.51562 3.9688-0.039062 5.375-1.4492 1.4023-1.4102 1.9414-3.4648 1.4141-5.3828-0.52344-1.9219-2.0352-3.4102-3.9609-3.9102zc-0.14062 8.0547 1.2656 6.625-6.7656 6.8047 0.51172 1.9219 2.0117 3.4258 3.9375 3.9375 1.9219 0.51562 3.9688-0.039062 5.375-1.4492 1.4023-1.4102 1.9414-3.4648 1.4141-5.3828-0.52344-1.9219-2.0352-3.4102-3.9609-3.9102zm-1.3906-4.3477c-5.3672 0-9.7227 4.3516-9.7227 9.7227 0.45703 12.859 18.984 12.859 19.445 0 0-2.5781-1.0234-5.0508-2.8477-6.875s-4.2969-2.8477-6.875-2.8477zm-7.0703 5.3047c0.875-1.2773 3.25-4.25 4.7227-2.2656 0.76562 1.3906-0.70703 1.9453-1.543 2.7773-0.83203 0.83203-0.98438 1.7344-2 1.6797l0.003906 0.003906c-0.53125 0.019532-1.0234-0.26562-1.2734-0.73047s-0.21484-1.0352 0.09375-1.4648zm7.0703 12.75c-4.6016 0-8.332-3.7305-8.332-8.332-0.003906-0.37109 0.14453-0.72656 0.40234-0.98828 0.26172-0.25781 0.61719-0.40234 0.98828-0.40234h5.5547v-5.5547c0-0.37109 0.15234-0.72656 0.41406-0.98828 0.24609-0.27734 0.60547-0.42578 0.97266-0.40234 11.016 0.39062 11 16.32 0 16.668zm1.3906-13.707c-0.14062 8.0547 1.2656 6.625-6.7656 6.8047 0.51172 1.9219 2.0117 3.4258 3.9375 3.9375 1.9219 0.51562 3.9688-0.039062 5.375-1.4492 1.4023-1.4102 1.9414-3.4648 1.4141-5.3828-0.52344-1.9219-2.0352-3.4102-3.9609-3.9102zm-55.555-26.57v11.109h11.109v-11.109zv11.109h11.109v-11.109zm41.789 30.305c0-0.26562 0-0.52734 0.10938-0.79297s0.082032-0.32031 0.10938-0.47266c0.027344-0.15234 0.10938-0.47266 0.17969-0.69531l0.16797-0.47266 0.003906 0.003906c0.17969-0.58984 0.41406-1.1602 0.69531-1.707l0.25-0.45703 0.33203-0.55469c0.097656-0.14062 0.19531-0.29297 0.30469-0.42969l0.375-0.51562 0.33203-0.40234c0.14062-0.16797 0.29297-0.32031 0.42969-0.47266l0.003906-0.003906c0.26953-0.28125 0.55078-0.55078 0.84766-0.80469l0.40234-0.33203c0.29297-0.25 0.625-0.45703 0.92969-0.69531l0.55469-0.33203 0.45703-0.26562 0.60938-0.29297 0.44531-0.20703 0.70703-0.26562h0.003906c0.50391-0.18359 1.0195-0.32812 1.543-0.42969h0.35938c0.26172-0.054688 0.52734-0.097657 0.79297-0.125v-2.2227l-9.7227-7.2773-13.055 10.445c-0.10938 0.097656-0.23828 0.16797-0.375 0.20703h-0.125c-0.13672 0.027344-0.27734 0.027344-0.41797 0-0.76562 0-1.3867-0.62109-1.3867-1.3867v-10.266l-7.707-5.1523h-0.003906c-0.45703-0.34375-0.65234-0.93359-0.5-1.4844 0.91797-3.6953 3.0156-12.07 3.918-15.68l-16.418-10.113-15.277 10.207v60.363h20.836v-20.836c0-0.76562 0.62109-1.3867 1.3867-1.3867h16.668c0.36719 0 0.72266 0.14453 0.98047 0.40625 0.26172 0.26172 0.40625 0.61328 0.40625 0.98047v20.836h20.836v-2.8633c-0.26562-0.027343-0.53125-0.070312-0.79297-0.125h-0.35938c-0.76953-0.16016-1.5234-0.39062-2.25-0.69141l-1.0586-0.48828-0.45703-0.26562-0.55469-0.33203c-0.30469-0.23438-0.64062-0.44531-0.92969-0.69531l-0.40234-0.33203c-0.29688-0.25391-0.58203-0.52344-0.84766-0.80469-0.14062-0.15234-0.29297-0.30469-0.42969-0.47266l-0.33203-0.40234-0.375-0.51562c-0.10938-0.14062-0.20703-0.29297-0.30469-0.42969l-0.33203-0.55469-0.29688-0.52734c-0.29688-0.54687-0.54297-1.1172-0.73828-1.7109l-0.16797-0.47266c-0.070312-0.22266-0.125-0.45703-0.17969-0.69531-0.054688-0.23438 0-0.30469-0.10938-0.47266s-0.082032-0.52734-0.10938-0.79297v0.003907c-0.015625-0.13281-0.015625-0.26953 0-0.40234-0.097657-0.82031-0.097657-1.6523 0-2.4727 0-0.13281 0.011719-0.26953 0.039062-0.40234zm-27.902-17.805c0 0.36719-0.14453 0.72266-0.40625 0.98047-0.26172 0.26172-0.61328 0.40625-0.98047 0.40625h-13.891c-0.76562 0-1.3867-0.62109-1.3867-1.3867v-13.891c0-0.76562 0.62109-1.3867 1.3867-1.3867h13.891c0.36719 0 0.71875 0.14453 0.98047 0.40625 0.26172 0.26172 0.40625 0.61328 0.40625 0.98047zm-13.887-1.3906h11.109v-11.109h-11.109zm0-11.109v11.109h11.109v-11.109zv11.109h11.109v-11.109zm15.277 27.777v19.445h13.887v-19.445zm-31.945 17.527v1.918h5.5547v-4.6953zm0-25.859v2.0273l5.5547 3.707v-5.7344zm-5.5547-5.5586v2.7773h11.109v-2.7773zm13.887-41.664v11.293l5.5547-3.707 0.003906-7.5859zm-2.7773-5.5547v2.7773h11.109l0.003907-2.7773zm-5.5547 66.664v1.918l5.5547 2.7773v-4.6953zm0 5.0273v3.832l3.832-1.9141zm0-13.543v5.7383h5.5547v-2.0273zm33.332-52.594v5.5547h2.7773v-5.5547zm-5.5547-5.5547v2.7773h41.668v-2.7773zm5.5547-8.332v5.5508h2.7773v-5.5547zm13.891-0.003906v5.5547h2.7773v-5.5547zm13.887 0v5.5547h2.7773l0.003906-5.5547zm0 13.891v5.5547h2.7773l0.003906-5.5547zm-13.887 0v5.5547h2.7773v-5.5547zm5.5547 0v5.5547h5.5547v-5.5547zm-13.887 0v5.5547h5.5547v-5.5547zm-3.5977 8.332 4.5156 2.7773h29.637v-2.7773zm25.816 5.5547v5.5547h2.7773l0.003906-5.5547zm-20.094 8.3359-0.73828 2.7773h29.168v-2.7773zm20.094 5.5547v7.6406l2.7812 2.082v-9.7227zm-8.332 0v12.109l5.5547-4.4453v-7.6641zm-5.5547 0v16.555l2.7773-2.2227v-14.332zm-7.5977 0-0.54297 2.168 5.3633 3.5664v-5.7344zm7.5977-13.891v5.5547h2.7773v-5.5547zm5.5547 0v5.5547h5.5547v-5.5547zm-9.7227 0c0.015624 0.11328 0.015624 0.22266 0 0.33594l-1.3867 5.2227h2.7773v-5.5586z"/>
<text x="0.0" y="117.5" font-size="5.0" font-weight="bold" font-family="Arbeit Regular, Helvetica, Arial-Unicode, Arial, Sans-serif" fill="#000000">Created by Muhammad Fadli Rusady</text><text x="0.0" y="122.5" font-size="5.0" font-weight="bold" font-family="Arbeit Regular, Helvetica, Arial-Unicode, Arial, Sans-serif" fill="#000000">from Noun Project</text></svg>